<?xml version="1.0" encoding="utf-8"?>
<!-- Generator: Adobe Illustrator 26.5.0, SVG Export Plug-In . SVG Version: 6.00 Build 0)  -->
<svg version="1.1" id="Шар_1" xmlns="http://www.w3.org/2000/svg" xmlns:xlink="http://www.w3.org/1999/xlink" x="0px" y="0px"
	 viewBox="0 0 595.28 841.89" style="enable-background:new 0 0 595.28 841.89;" xml:space="preserve">
<style type="text/css">
	.st0{fill:#7E3D18;}
	.st1{fill:#9C4D21;}
</style>
<path class="st0" d="M72.69,377.9c-0.43-115.14,94.06-211.92,212.36-210.82c115.96,1.08,208.74,96.23,208.3,211.55
	c-0.44,115.48-94.77,209.82-210.27,209.96C166.74,588.73,72.38,493.16,72.69,377.9z M480.36,377.86
	c0-108.54-88.4-197.6-196.29-197.75c-110.03-0.16-198.44,87.94-198.45,197.76c-0.01,109.19,88.24,197.71,197.12,197.73
	C392,575.62,480.36,487.2,480.36,377.86z"/>
<path class="st0" d="M313.71,413.86c2.66,11.6,1.58,22.64-5.3,32.65c-6.44,9.36-15.69,14.24-26.76,15.65
	c-12.9,1.64-24.28-1.92-33.38-11.35c-9.75-10.09-13.28-22.23-10.62-36.09c0.92-5.07,3.01-9.68,5.58-14.08
	c1.32-2.25,3.26-4.11,4.17-6.62c5.49-5.91,10.76-12.03,16.64-17.57c0.84-0.79,0.74-1.35-0.02-2.11c-4.94-4.94-9.84-9.91-14.76-14.88
	c0.3-0.92-0.4-1.4-0.83-2.03c-2.96-4.36-6.23-8.52-8.09-13.55c-0.77-2.09-1.28-4.32-2.52-6.22c-0.62-4.54-1.38-9.06-1.07-13.69
	c1.21-18.46,12.92-31.66,31.06-34.95c26.18-4.74,48.64,15.22,47.06,41.85c-0.14,2.31-0.39,4.63-1.4,6.78
	c-0.37,1.51-0.64,3.05-1.13,4.52c-2.48,7.53-7.46,13.49-12.35,19.51c-3.58,4.4-7.76,8.23-11.75,12.24
	c-1.27,1.27-1.53,2.25,0.67,2.62c1.02,1.08,2.03,2.16,3.05,3.24c0.17,0.16,0.33,0.32,0.5,0.49c0.41,0.19,0.78,0.44,0.91,0.91
	c0,0.64,0.31,0.97,0.95,0.96l-0.01-0.01c0.03,0.75-0.04,1.6,1.16,1.14l0.04,0.02c-0.32,0.61,0.06,0.96,0.41,1.41
	c3.04,3.79,6.37,7.3,9.27,11.23C309.26,401.37,311.87,407.39,313.71,413.86z M261.21,402.46c-3.91,3.8-6.25,8.5-7.68,13.68
	c-2.91,10.56,1.73,21.56,11.22,26.76c9.46,5.18,22.24,3.19,29.07-4.82c6.17-7.24,6.49-15.59,3.56-24.21
	c-2.73-8.02-8.14-14.29-13.91-20.24c-2.03-2.1-3.77-4.55-6.46-5.94c-1.28-2.96-2.64-0.26-3.1,0.3c-2.6,3.2-5.94,5.69-8.46,8.9
	C264.01,398.7,261.69,399.9,261.21,402.46z M299.09,326.03c-0.27-6.97-4.41-14.07-12.82-18.49c-11.91-6.26-30.81-0.78-33.29,16.29
	c-1.49,10.27,2.69,18.86,9.27,26.26c4.12,4.64,8.94,8.67,13.42,13c0.7,0.68,1.16,0.79,1.89,0.01c4.49-4.76,9.29-9.23,13.32-14.41
	C295.49,342.76,299.13,336.38,299.09,326.03z"/>
<path class="st1" d="M112.4,376.03c0-13.18,0-26.37,0-39.55c0-3.28,0.25-3.54,3.4-3.54c12.15,0,24.3-0.18,36.44,0.04
	c18.98,0.35,27.7,19.99,20.89,34.41c-0.77,1.64-1.82,3.11-3.08,4.38c-0.94,0.95-0.87,1.49,0.15,2.34c6.86,5.71,9.6,13.19,9.14,21.97
	c-0.67,12.75-11.3,22.97-24.02,23.02c-13.24,0.05-26.47,0.01-39.71,0c-2.78,0-3.21-0.44-3.21-3.29
	C112.39,402.55,112.4,389.29,112.4,376.03z M141.18,404.96c3.19,0,6.39,0.04,9.58-0.01c6.75-0.1,11.24-4.61,11.37-11.36
	c0.12-6.63-4.8-12.2-11.18-12.33c-6.7-0.14-13.4-0.01-20.1-0.07c-1.25-0.01-1.59,0.41-1.58,1.61c0.04,6.87,0.05,13.74,0,20.61
	c-0.01,1.24,0.42,1.6,1.62,1.57C134.32,404.92,137.75,404.96,141.18,404.96z M139.83,346.96c0-0.02,0-0.03,0-0.05
	c-2.96,0-5.92,0-8.87,0c-0.86,0-1.69-0.14-1.68,1.23c0.05,6.16,0.03,12.32,0.02,18.48c0,0.83,0.2,1.32,1.17,1.3
	c6.3-0.11,12.62,0.39,18.9-0.25c5.88-0.6,9.48-4.91,9.24-10.62c-0.24-5.89-4.16-9.84-10.13-10.08
	C145.59,346.86,142.71,346.96,139.83,346.96z"/>
<path class="st1" d="M398.78,370.56c1.83-2.06,3.57-3.99,5.29-5.95c8.54-9.72,17.09-19.43,25.58-29.2c1.5-1.73,3.15-2.58,5.46-2.52
	c4.05,0.12,8.1,0.01,12.15,0.05c1.05,0.01,2.4-0.45,3,0.71c0.67,1.28-0.51,2.15-1.26,3c-6.01,6.86-12.03,13.71-18.05,20.56
	c-3.14,3.57-6.21,7.2-9.44,10.69c-1.15,1.24-1.11,2.03-0.11,3.34c11.25,14.65,22.45,29.35,33.65,44.04c0.38,0.5,0.78,0.98,1.08,1.53
	c0.71,1.3,0.3,2.23-1.18,2.25c-5.69,0.07-11.37,0.07-17.06,0.01c-1.69-0.02-2.49-1.46-3.37-2.63c-8.01-10.56-16-21.14-24-31.71
	c-1.74-2.3-1.74-2.3-3.76-0.12c-1.8,1.95-3.45,4.06-5.42,5.81c-2.35,2.09-3.17,4.44-3.03,7.59c0.25,5.84,0.08,11.71,0.06,17.56
	c-0.01,3.08-0.47,3.53-3.5,3.54c-3.19,0.01-6.39,0-9.58,0c-3.53,0-3.91-0.37-3.91-3.84c0-16.94,0-33.88,0-50.82
	c0-9.29-0.01-18.58,0-27.87c0-3.1,0.57-3.65,3.69-3.65c3.27-0.01,6.54-0.03,9.82,0c2.72,0.03,3.47,0.77,3.48,3.5
	c0.02,10.46,0.01,20.92,0.03,31.38C398.39,368.63,398.17,369.49,398.78,370.56z"/>
<path class="st0" d="M250.62,521.87c0-13.03,0-26.07,0-39.1c0-3.85,0.32-4.17,4.08-4.17c10.36,0,20.72-0.05,31.08,0.01
	c13.16,0.07,23.87,8.59,26.76,21.16c2.95,12.83-2.98,25.51-14.68,31.35c-3.76,1.88-7.79,2.67-11.97,2.69
	c-5.3,0.03-10.6,0.14-15.89-0.06c-2.25-0.08-2.61,0.71-2.58,2.71c0.11,7.96,0.04,15.92,0.05,23.88c0,4.21-0.23,4.44-4.52,4.44
	c-2.96,0-5.92,0.01-8.88,0c-2.97-0.01-3.37-0.4-3.43-3.35c0-0.16,0-0.31,0-0.47c0-13.03,0-26.07,0-39.1
	C250.63,521.87,250.63,521.87,250.62,521.87z M267.47,506.37c0,3.74,0.02,7.48-0.01,11.22c-0.01,0.97,0.06,1.64,1.33,1.6
	c5.44-0.16,10.89,0.3,16.31-0.24c6.53-0.65,11.18-6.16,11.07-12.84c-0.11-6.68-5.16-12.25-11.7-12.56
	c-5.12-0.24-10.26-0.07-15.39-0.18c-1.43-0.03-1.64,0.58-1.62,1.79C267.51,498.89,267.48,502.63,267.47,506.37z"/>
<path class="st1" d="M313.71,413.86c-1.83-6.47-4.44-12.49-8.5-17.98c-2.9-3.93-6.24-7.44-9.27-11.23c-0.36-0.45-0.74-0.8-0.41-1.41
	c0.79,0.24,1.23,0.93,1.79,1.46c4.86,4.65,9.9,9.03,16.01,12.01c12.44,6.05,26.47,1.61,32.37-10.29
	c6.26-12.64,0.07-28.47-12.82-32.44c-7.84-2.41-15.25-0.79-22.24,3.14c-8.13,4.57-14.55,11.17-20.95,17.78
	c-0.41,0.42-0.97,0.84-0.75,1.6c-2.2-0.37-1.93-1.35-0.67-2.62c3.99-4,8.17-7.84,11.75-12.24c4.89-6.01,9.87-11.97,12.35-19.51
	c0.48-1.47,0.76-3.01,1.13-4.52c0.36,1.46,1.3,0.9,2.19,0.66c10.13-2.69,19.94-1.71,29.32,2.87c10.69,5.22,16.37,14.3,18.84,25.61
	c4.71,21.6-7.59,41.68-28.89,47.33c-6.3,1.67-12.62,1.52-18.95,0.13C315.23,414.07,314.47,413.98,313.71,413.86z"/>
<path class="st0" d="M253.74,237.01c0-12.8,0-25.6,0-38.39c0-4.5,0.38-4.87,4.96-4.87c2.96,0,5.92-0.02,8.88,0.01
	c2.46,0.03,3.23,0.75,3.28,3.2c0.06,2.89,0.02,5.77,0.02,8.66c0,18.73,0.03,37.46-0.05,56.19c-0.01,1.99,0.55,2.42,2.45,2.4
	c9.89-0.1,19.78-0.05,29.67-0.04c3.6,0,4.28,0.67,4.3,4.19c0.02,2.81,0.04,5.62-0.02,8.43c-0.05,2.52-0.8,3.21-3.5,3.22
	c-15.58,0.02-31.15,0.02-46.73,0c-2.58,0-3.24-0.71-3.25-3.42c-0.02-13.19-0.01-26.38-0.01-39.56
	C253.75,237.01,253.74,237.01,253.74,237.01z"/>
<path class="st1" d="M247.41,394.01c-0.92,2.51-2.86,4.37-4.17,6.62c-2.57,4.41-4.66,9.02-5.58,14.08
	c-4.72,0.33-9.4,0.98-14.17,0.29c-16.96-2.43-29.36-14.59-31.96-31.56c-3.53-23.11,10.87-42.72,33.99-46.17
	c4.09-0.61,8.23-0.4,12.31,0.36c1.25,1.91,1.75,4.13,2.52,6.22c1.86,5.04,5.13,9.2,8.09,13.55c0.43,0.64,1.13,1.12,0.83,2.03
	c-2.79-1.53-5.41-3.35-8.37-4.58c-17.39-7.23-35.19,5.93-33.04,24.43c1.56,13.45,12.84,21.9,26.12,19.79
	C238.85,398.32,243.12,396.2,247.41,394.01z"/>
<path class="st1" d="M277.01,387.69c-4.94,5.27-9.99,10.42-15.79,14.77c0.48-2.55,2.8-3.76,4.23-5.58c2.53-3.21,5.86-5.7,8.46-8.9
	C274.36,387.42,275.73,384.72,277.01,387.69z"/>
<path class="st1" d="M294.32,382.08c0.56,0.2,0.94,0.58,1.16,1.14C294.28,383.68,294.35,382.83,294.32,382.08z"/>
<path class="st1" d="M293.38,381.14c0.51,0.13,0.82,0.45,0.95,0.96C293.68,382.1,293.37,381.78,293.38,381.14z"/>
<path class="st1" d="M291.97,379.74c0.29,0.03,0.48,0.17,0.5,0.49C292.3,380.06,292.14,379.9,291.97,379.74z"/>
</svg>
